<svg width="13" height="14" viewBox="0 0 13 14" fill="none" xmlns="http://www.w3.org/2000/svg">
<g clip-path="url(#clip0_17_493)">
<path d="M9.481 0.244141H3.51898C1.57858 0.244141 0 1.82272 0 3.76312V9.72524C0 11.6655 1.57858 13.2441 3.51898 13.2441H9.4811C11.4214 13.2441 13 11.6655 13 9.72524V3.76312C13 1.82272 11.4214 0.244141 9.481 0.244141V0.244141ZM12.2379 9.72524C12.2379 11.2453 11.0012 12.482 9.481 12.482H3.51898C1.99881 12.482 0.762114 11.2453 0.762114 9.72524V3.76312C0.762114 2.24295 1.99881 1.00625 3.51898 1.00625H9.4811C11.0012 1.00625 12.2379 2.24295 12.2379 3.76312V9.72524Z" fill="#00063F"/>
<path d="M6.50002 3.18945C4.53998 3.18945 2.94543 4.784 2.94543 6.74403C2.94543 8.70407 4.53998 10.2986 6.50002 10.2986C8.46005 10.2986 10.0546 8.70407 10.0546 6.74403C10.0546 4.784 8.46005 3.18945 6.50002 3.18945ZM6.50002 9.5365C4.96032 9.5365 3.70755 8.28383 3.70755 6.74403C3.70755 5.20433 4.96032 3.95157 6.50002 3.95157C8.03982 3.95157 9.29248 5.20433 9.29248 6.74403C9.29248 8.28383 8.03982 9.5365 6.50002 9.5365Z" fill="#00063F"/>
<path d="M10.1397 1.92676C9.56047 1.92676 9.08936 2.39797 9.08936 2.97709C9.08936 3.55632 9.56047 4.02753 10.1397 4.02753C10.7189 4.02753 11.1901 3.55632 11.1901 2.97709C11.1901 2.39787 10.7189 1.92676 10.1397 1.92676ZM10.1397 3.26532C9.9808 3.26532 9.85147 3.13598 9.85147 2.97709C9.85147 2.81811 9.9808 2.68887 10.1397 2.68887C10.2987 2.68887 10.428 2.81811 10.428 2.97709C10.428 3.13598 10.2987 3.26532 10.1397 3.26532Z" fill="#00063F"/>
</g>
<defs>
<clipPath id="clip0_17_493">
<rect width="13" height="13" fill="white" transform="translate(0 0.244141)"/>
</clipPath>
</defs>
</svg>
