<svg width="11" height="12" viewBox="0 0 11 12" fill="none" xmlns="http://www.w3.org/2000/svg">
<g clip-path="url(#clip0_17_507)">
<path d="M10.9971 11.2444V11.2439H10.9998V7.2097C10.9998 5.23611 10.575 3.71582 8.26771 3.71582C7.15854 3.71582 6.41421 4.32449 6.11033 4.90153H6.07825V3.90007H3.89062V11.2439H6.16854V7.60753C6.16854 6.65007 6.35004 5.72424 7.53575 5.72424C8.70404 5.72424 8.72146 6.8169 8.72146 7.66895V11.2444H10.9971Z" fill="#00063F"/>
<path d="M0.181519 3.90039H2.46219V11.2443H0.181519V3.90039Z" fill="#00063F"/>
<path d="M1.32092 0.244141C0.591708 0.244141 0 0.835849 0 1.56506C0 2.29427 0.591708 2.89835 1.32092 2.89835C2.05013 2.89835 2.64183 2.29427 2.64183 1.56506C2.64138 0.835849 2.04967 0.244141 1.32092 0.244141V0.244141Z" fill="#00063F"/>
</g>
<defs>
<clipPath id="clip0_17_507">
<rect width="11" height="11" fill="white" transform="translate(0 0.244141)"/>
</clipPath>
</defs>
</svg>
