<svg width="1003" height="300" viewBox="0 0 1003 300" fill="none" xmlns="http://www.w3.org/2000/svg">
<g opacity="0.3">
<path d="M223.058 9.46358V64.5261H148.302V291.609H79.5738V64.5261H4.81738V9.46358H223.058ZM374.233 294.422C347.707 294.422 323.324 288.26 301.084 275.934C279.113 263.609 261.563 246.46 248.433 224.489C235.572 202.249 229.141 177.331 229.141 149.732C229.141 122.134 235.572 97.3493 248.433 75.3779C261.563 53.4064 279.113 36.258 301.084 23.9326C323.324 11.6071 347.707 5.44442 374.233 5.44442C400.76 5.44442 425.009 11.6071 446.98 23.9326C469.219 36.258 486.636 53.4064 499.229 75.3779C512.091 97.3493 518.521 122.134 518.521 149.732C518.521 177.331 512.091 202.249 499.229 224.489C486.368 246.46 468.952 263.609 446.98 275.934C425.009 288.26 400.76 294.422 374.233 294.422ZM374.233 231.723C396.741 231.723 414.693 224.221 428.09 209.216C441.755 194.211 448.588 174.383 448.588 149.732C448.588 124.814 441.755 104.986 428.09 90.2488C414.693 75.2439 396.741 67.7414 374.233 67.7414C351.458 67.7414 333.238 75.1099 319.573 89.8468C306.175 104.584 299.477 124.546 299.477 149.732C299.477 174.651 306.175 194.613 319.573 209.618C333.238 224.355 351.458 231.723 374.233 231.723ZM673.439 294.422C646.913 294.422 622.53 288.26 600.291 275.934C578.319 263.609 560.769 246.46 547.64 224.489C534.778 202.249 528.348 177.331 528.348 149.732C528.348 122.134 534.778 97.3493 547.64 75.3779C560.769 53.4064 578.319 36.258 600.291 23.9326C622.53 11.6071 646.913 5.44442 673.439 5.44442C699.966 5.44442 724.215 11.6071 746.186 23.9326C768.426 36.258 785.842 53.4064 798.435 75.3779C811.297 97.3493 817.727 122.134 817.727 149.732C817.727 177.331 811.297 202.249 798.435 224.489C785.574 246.46 768.158 263.609 746.186 275.934C724.215 288.26 699.966 294.422 673.439 294.422ZM673.439 231.723C695.947 231.723 713.899 224.221 727.296 209.216C740.961 194.211 747.794 174.383 747.794 149.732C747.794 124.814 740.961 104.986 727.296 90.2488C713.899 75.2439 695.947 67.7414 673.439 67.7414C650.664 67.7414 632.444 75.1099 618.779 89.8468C605.382 104.584 598.683 124.546 598.683 149.732C598.683 174.651 605.382 194.613 618.779 209.618C632.444 224.355 650.664 231.723 673.439 231.723ZM907.937 238.556H997.966V291.609H839.209V9.46358H907.937V238.556Z" fill="white"/>
<path d="M223.058 9.46358H227.716V4.80561H223.058V9.46358ZM223.058 64.5261V69.1841H227.716V64.5261H223.058ZM148.302 64.5261V59.8682H143.644V64.5261H148.302ZM148.302 291.609V296.267H152.96V291.609H148.302ZM79.5738 291.609H74.9159V296.267H79.5738V291.609ZM79.5738 64.5261H84.2318V59.8682H79.5738V64.5261ZM4.81738 64.5261H0.159408V69.1841H4.81738V64.5261ZM4.81738 9.46358V4.80561H0.159408V9.46358H4.81738ZM223.058 9.46358H218.4V64.5261H223.058H227.716V9.46358H223.058ZM223.058 64.5261V59.8682H148.302V64.5261V69.1841H223.058V64.5261ZM148.302 64.5261H143.644V291.609H148.302H152.96V64.5261H148.302ZM148.302 291.609V286.951H79.5738V291.609V296.267H148.302V291.609ZM79.5738 291.609H84.2318V64.5261H79.5738H74.9159V291.609H79.5738ZM79.5738 64.5261V59.8682H4.81738V64.5261V69.1841H79.5738V64.5261ZM4.81738 64.5261H9.47535V9.46358H4.81738H0.159408V64.5261H4.81738ZM4.81738 9.46358V14.1215H223.058V9.46358V4.80561H4.81738V9.46358ZM301.084 275.934L298.806 279.997L298.816 280.002L298.827 280.008L301.084 275.934ZM248.433 224.489L244.401 226.821L244.418 226.85L244.435 226.878L248.433 224.489ZM248.433 75.3779L244.435 72.9885L244.424 73.0066L244.413 73.0247L248.433 75.3779ZM301.084 23.9326L298.827 19.8585L298.816 19.8643L298.806 19.8702L301.084 23.9326ZM446.98 23.9326L444.701 27.995L444.712 28.0009L444.722 28.0067L446.98 23.9326ZM499.229 75.3779L495.188 77.6942L495.199 77.7126L495.209 77.731L499.229 75.3779ZM499.229 224.489L503.249 226.842L503.255 226.831L503.261 226.821L499.229 224.489ZM446.98 275.934L449.259 279.997L446.98 275.934ZM428.09 209.216L424.646 206.08L424.631 206.097L424.615 206.114L428.09 209.216ZM428.09 90.2488L424.615 93.351L424.645 93.3838L424.674 93.4159L428.09 90.2488ZM319.573 89.8468L316.157 86.6797L316.141 86.6966L316.126 86.7136L319.573 89.8468ZM319.573 209.618L316.098 212.72L316.127 212.753L316.157 212.785L319.573 209.618ZM374.233 294.422V289.764C348.461 289.764 324.86 283.786 303.342 271.86L301.084 275.934L298.827 280.008C321.787 292.733 346.952 299.08 374.233 299.08V294.422ZM301.084 275.934L303.363 271.872C282.113 259.951 265.151 243.384 252.432 222.1L248.433 224.489L244.435 226.878C257.974 249.536 276.113 267.267 298.806 279.997L301.084 275.934ZM248.433 224.489L252.466 222.157C240.045 200.679 233.799 176.575 233.799 149.732H229.141H224.483C224.483 178.087 231.1 203.82 244.401 226.821L248.433 224.489ZM229.141 149.732H233.799C233.799 122.889 240.045 98.9291 252.453 77.731L248.433 75.3779L244.413 73.0247C231.1 95.7695 224.483 121.379 224.483 149.732H229.141ZM248.433 75.3779L252.432 77.7672C265.151 56.4823 282.113 39.9158 303.363 27.995L301.084 23.9326L298.806 19.8702C276.113 32.6002 257.974 50.3305 244.435 72.9885L248.433 75.3779ZM301.084 23.9326L303.342 28.0067C324.86 16.081 348.461 10.1024 374.233 10.1024V5.44442V0.786446C346.952 0.786446 321.787 7.13324 298.827 19.8585L301.084 23.9326ZM374.233 5.44442V10.1024C400.005 10.1024 423.463 16.0809 444.701 27.995L446.98 23.9326L449.259 19.8702C426.554 7.13334 401.514 0.786446 374.233 0.786446V5.44442ZM446.98 23.9326L444.722 28.0067C466.221 39.9217 483.019 56.4636 495.188 77.6942L499.229 75.3779L503.27 73.0615C490.252 50.3493 472.218 32.5943 449.238 19.8585L446.98 23.9326ZM499.229 75.3779L495.209 77.731C507.618 98.9291 513.863 122.889 513.863 149.732H518.521H523.179C523.179 121.379 516.563 95.7695 503.249 73.0247L499.229 75.3779ZM518.521 149.732H513.863C513.863 176.575 507.618 200.679 495.197 222.157L499.229 224.489L503.261 226.821C516.563 203.82 523.179 178.087 523.179 149.732H518.521ZM499.229 224.489L495.209 222.136C482.762 243.401 465.943 259.956 444.701 271.872L446.98 275.934L449.259 279.997C471.96 267.262 489.974 249.52 503.249 226.842L499.229 224.489ZM446.98 275.934L444.701 271.872C423.463 283.786 400.005 289.764 374.233 289.764V294.422V299.08C401.514 299.08 426.554 292.733 449.259 279.997L446.98 275.934ZM374.233 231.723V236.381C397.892 236.381 417.173 228.437 431.565 212.318L428.09 209.216L424.615 206.114C412.213 220.005 395.589 227.065 374.233 227.065V231.723ZM428.09 209.216L431.534 212.352C446.14 196.314 453.246 175.282 453.246 149.732H448.588H443.93C443.93 173.485 437.37 192.108 424.646 206.08L428.09 209.216ZM448.588 149.732H453.246C453.246 123.934 446.15 102.874 431.506 87.0816L428.09 90.2488L424.674 93.4159C437.361 107.097 443.93 125.693 443.93 149.732H448.588ZM428.09 90.2488L431.565 87.1465C417.173 71.0279 397.892 63.0835 374.233 63.0835V67.7414V72.3994C395.589 72.3994 412.213 79.4599 424.615 93.351L428.09 90.2488ZM374.233 67.7414V63.0835C350.352 63.0835 330.825 70.861 316.157 86.6797L319.573 89.8468L322.988 93.014C335.65 79.3588 352.564 72.3994 374.233 72.3994V67.7414ZM319.573 89.8468L316.126 86.7136C301.759 102.517 294.819 123.705 294.819 149.732H299.477H304.135C304.135 125.386 310.592 106.65 323.019 92.9801L319.573 89.8468ZM299.477 149.732H294.819C294.819 175.511 301.768 196.671 316.098 212.72L319.573 209.618L323.047 206.516C310.582 192.555 304.135 173.791 304.135 149.732H299.477ZM319.573 209.618L316.157 212.785C330.825 228.604 350.352 236.381 374.233 236.381V231.723V227.065C352.564 227.065 335.65 220.106 322.988 206.451L319.573 209.618ZM600.291 275.934L598.012 279.997L598.022 280.002L598.033 280.008L600.291 275.934ZM547.64 224.489L543.607 226.821L543.624 226.85L543.641 226.878L547.64 224.489ZM547.64 75.3779L543.641 72.9885L543.63 73.0066L543.62 73.0247L547.64 75.3779ZM600.291 23.9326L598.033 19.8585L598.022 19.8643L598.012 19.8702L600.291 23.9326ZM746.186 23.9326L743.907 27.995L743.918 28.0009L743.928 28.0067L746.186 23.9326ZM798.435 75.3779L794.394 77.6942L794.405 77.7126L794.415 77.731L798.435 75.3779ZM798.435 224.489L802.455 226.842L802.461 226.831L802.468 226.821L798.435 224.489ZM746.186 275.934L748.465 279.997L746.186 275.934ZM727.296 209.216L723.852 206.08L723.837 206.097L723.822 206.114L727.296 209.216ZM727.296 90.2488L723.822 93.351L723.851 93.3838L723.881 93.4159L727.296 90.2488ZM618.779 89.8468L615.363 86.6797L615.348 86.6966L615.332 86.7136L618.779 89.8468ZM618.779 209.618L615.304 212.72L615.333 212.753L615.363 212.785L618.779 209.618ZM673.439 294.422V289.764C647.667 289.764 624.067 283.786 602.549 271.86L600.291 275.934L598.033 280.008C620.993 292.733 646.158 299.08 673.439 299.08V294.422ZM600.291 275.934L602.569 271.872C581.319 259.951 564.357 243.384 551.638 222.1L547.64 224.489L543.641 226.878C557.181 249.536 575.319 267.267 598.012 279.997L600.291 275.934ZM547.64 224.489L551.672 222.157C539.251 200.679 533.005 176.575 533.005 149.732H528.348H523.69C523.69 178.087 530.306 203.82 543.607 226.821L547.64 224.489ZM528.348 149.732H533.005C533.005 122.889 539.251 98.9291 551.659 77.731L547.64 75.3779L543.62 73.0247C530.306 95.7695 523.69 121.379 523.69 149.732H528.348ZM547.64 75.3779L551.638 77.7672C564.357 56.4823 581.319 39.9158 602.569 27.995L600.291 23.9326L598.012 19.8702C575.319 32.6002 557.181 50.3305 543.641 72.9885L547.64 75.3779ZM600.291 23.9326L602.549 28.0067C624.067 16.081 647.667 10.1024 673.439 10.1024V5.44442V0.786446C646.158 0.786446 620.993 7.13324 598.033 19.8585L600.291 23.9326ZM673.439 5.44442V10.1024C699.212 10.1024 722.669 16.0809 743.907 27.995L746.186 23.9326L748.465 19.8702C725.76 7.13334 700.72 0.786446 673.439 0.786446V5.44442ZM746.186 23.9326L743.928 28.0067C765.427 39.9217 782.225 56.4636 794.394 77.6942L798.435 75.3779L802.477 73.0615C789.459 50.3493 771.424 32.5943 748.444 19.8585L746.186 23.9326ZM798.435 75.3779L794.415 77.731C806.824 98.9291 813.069 122.889 813.069 149.732H817.727H822.385C822.385 121.379 815.769 95.7695 802.455 73.0247L798.435 75.3779ZM817.727 149.732H813.069C813.069 176.575 806.824 200.679 794.403 222.157L798.435 224.489L802.468 226.821C815.769 203.82 822.385 178.087 822.385 149.732H817.727ZM798.435 224.489L794.415 222.136C781.968 243.401 765.149 259.956 743.907 271.872L746.186 275.934L748.465 279.997C771.166 267.262 789.18 249.52 802.455 226.842L798.435 224.489ZM746.186 275.934L743.907 271.872C722.669 283.786 699.212 289.764 673.439 289.764V294.422V299.08C700.72 299.08 725.76 292.733 748.465 279.997L746.186 275.934ZM673.439 231.723V236.381C697.098 236.381 716.379 228.437 730.771 212.318L727.296 209.216L723.822 206.114C711.419 220.005 694.795 227.065 673.439 227.065V231.723ZM727.296 209.216L730.74 212.352C745.346 196.314 752.452 175.282 752.452 149.732H747.794H743.136C743.136 173.485 736.576 192.108 723.852 206.08L727.296 209.216ZM747.794 149.732H752.452C752.452 123.934 745.356 102.874 730.712 87.0816L727.296 90.2488L723.881 93.4159C736.567 107.097 743.136 125.693 743.136 149.732H747.794ZM727.296 90.2488L730.771 87.1465C716.379 71.0279 697.098 63.0835 673.439 63.0835V67.7414V72.3994C694.795 72.3994 711.419 79.4599 723.822 93.351L727.296 90.2488ZM673.439 67.7414V63.0835C649.558 63.0835 630.031 70.861 615.363 86.6797L618.779 89.8468L622.194 93.014C634.856 79.3588 651.77 72.3994 673.439 72.3994V67.7414ZM618.779 89.8468L615.332 86.7136C600.965 102.517 594.025 123.705 594.025 149.732H598.683H603.341C603.341 125.386 609.798 106.65 622.225 92.9801L618.779 89.8468ZM598.683 149.732H594.025C594.025 175.511 600.974 196.671 615.304 212.72L618.779 209.618L622.253 206.516C609.789 192.555 603.341 173.791 603.341 149.732H598.683ZM618.779 209.618L615.363 212.785C630.031 228.604 649.558 236.381 673.439 236.381V231.723V227.065C651.77 227.065 634.856 220.106 622.194 206.451L618.779 209.618ZM907.937 238.556H903.279V243.214H907.937V238.556ZM997.966 238.556H1002.62V233.898H997.966V238.556ZM997.966 291.609V296.267H1002.62V291.609H997.966ZM839.209 291.609H834.551V296.267H839.209V291.609ZM839.209 9.46358V4.80561H834.551V9.46358H839.209ZM907.937 9.46358H912.595V4.80561H907.937V9.46358ZM907.937 238.556V243.214H997.966V238.556V233.898H907.937V238.556ZM997.966 238.556H993.308V291.609H997.966H1002.62V238.556H997.966ZM997.966 291.609V286.951H839.209V291.609V296.267H997.966V291.609ZM839.209 291.609H843.867V9.46358H839.209H834.551V291.609H839.209ZM839.209 9.46358V14.1215H907.937V9.46358V4.80561H839.209V9.46358ZM907.937 9.46358H903.279V238.556H907.937H912.595V9.46358H907.937Z" fill="#E0E0F9"/>
</g>
</svg>
