<svg width="13" height="14" viewBox="0 0 13 14" fill="none" xmlns="http://www.w3.org/2000/svg">
<path d="M13 2.71333C12.5166 2.92539 12.0014 3.06595 11.4644 3.1342C12.0169 2.80433 12.4386 2.28595 12.6368 1.66114C12.1217 1.96827 11.5529 2.1852 10.9468 2.30627C10.4577 1.78545 9.76056 1.46289 9.00006 1.46289C7.52456 1.46289 6.33669 2.66052 6.33669 4.1287C6.33669 4.33995 6.35456 4.54308 6.39844 4.73645C4.18275 4.62839 2.22219 3.56645 0.905125 1.94877C0.675187 2.3477 0.540313 2.80433 0.540313 3.29589C0.540313 4.21889 1.01562 5.03708 1.72413 5.51077C1.29594 5.50264 0.875875 5.37833 0.52 5.18252C0.52 5.19064 0.52 5.2012 0.52 5.21177C0.52 6.50689 1.44381 7.58264 2.65525 7.83045C2.43831 7.88977 2.20187 7.9182 1.9565 7.9182C1.78587 7.9182 1.61362 7.90845 1.45194 7.8727C1.79725 8.92814 2.77713 9.70408 3.94225 9.72927C3.0355 10.4386 1.88419 10.866 0.637812 10.866C0.41925 10.866 0.209625 10.8562 0 10.8294C1.18056 11.5907 2.57969 12.0254 4.0885 12.0254C8.99275 12.0254 11.674 7.96289 11.674 4.44152C11.674 4.3237 11.6699 4.20995 11.6643 4.09702C12.1932 3.72164 12.6376 3.25283 13 2.71333Z" fill="#00063F"/>
</svg>
